<?xml version="1.0" standalone="no"?>
<!DOCTYPE svg PUBLIC "-//W3C//DTD SVG 20010904//EN"
 "http://www.w3.org/TR/2001/REC-SVG-20010904/DTD/svg10.dtd">
<svg version="1.0" xmlns="http://www.w3.org/2000/svg"
 width="120.000000pt" height="120.000000pt" viewBox="0 0 120.000000 120.000000"
 preserveAspectRatio="xMidYMid meet">
<metadata>
Created by potrace 1.14, written by Peter Selinger 2001-2017
</metadata>
<g transform="translate(0.000000,120.000000) scale(0.100000,-0.100000)"
fill="#000000" stroke="none">
<path d="M291 1098 c-78 -13 -157 -80 -182 -155 -18 -55 -18 -632 0 -687 19
-55 84 -121 139 -143 41 -15 83 -17 357 -17 341 0 347 1 418 63 19 18 46 53
58 79 23 46 23 54 23 362 -1 346 -2 353 -63 423 -18 19 -53 46 -78 58 -45 22
-58 22 -338 23 -160 1 -310 -2 -334 -6z m656 -61 c42 -22 72 -54 92 -98 15
-32 17 -77 16 -345 -1 -331 -2 -336 -54 -391 -53 -56 -60 -57 -401 -57 -310
-1 -316 0 -355 22 -44 25 -81 72 -93 118 -5 16 -8 164 -7 329 1 271 3 303 19
335 19 34 27 44 58 69 44 34 86 38 391 36 261 -1 306 -4 334 -18z"/>
<path d="M379 967 c-66 -33 -69 -45 -66 -377 3 -395 -13 -375 292 -374 167 0
194 2 222 19 57 33 58 40 58 369 0 400 15 380 -284 381 -160 0 -190 -2 -222
-18z m442 -56 c18 -21 19 -44 19 -306 0 -156 -3 -291 -6 -300 -14 -36 -53 -42
-248 -41 -184 2 -189 2 -207 25 -18 22 -19 44 -19 310 0 309 3 325 53 333 12
2 105 3 206 3 179 -1 184 -1 202 -24z"/>
<path d="M417 884 c-9 -10 -9 -134 1 -135 29 -5 354 -4 363 1 6 4 9 34 7 71
l-3 64 -181 3 c-99 1 -183 -1 -187 -4z"/>
<path d="M432 684 c-33 -23 -26 -65 12 -79 24 -8 31 -6 47 14 15 19 17 27 7
44 -20 39 -34 44 -66 21z"/>
<path d="M570 680 c-11 -11 -20 -26 -20 -33 0 -18 32 -47 52 -47 17 0 48 31
48 48 0 15 -36 52 -50 52 -5 0 -19 -9 -30 -20z"/>
<path d="M718 689 c-22 -13 -24 -62 -2 -79 23 -20 68 -1 72 30 1 14 -1 30 -5
36 -12 18 -46 24 -65 13z"/>
<path d="M422 538 c-35 -35 9 -96 53 -76 30 13 37 41 18 67 -16 23 -52 28 -71
9z"/>
<path d="M566 534 c-9 -8 -16 -20 -16 -25 0 -51 73 -69 90 -23 6 14 10 27 10
29 0 11 -34 35 -50 35 -10 0 -26 -7 -34 -16z"/>
<path d="M712 538 c-13 -13 -15 -37 -6 -62 7 -19 55 -21 72 -4 28 28 7 78 -33
78 -12 0 -26 -5 -33 -12z"/>
<path d="M438 403 c-20 -5 -32 -36 -23 -62 7 -24 33 -31 123 -31 59 0 76 4 92
20 48 48 7 80 -100 79 -41 -1 -83 -3 -92 -6z"/>
<path d="M712 398 c-19 -19 -15 -66 7 -78 27 -14 37 -13 55 6 17 17 20 42 8
61 -11 18 -56 25 -70 11z"/>
</g>
</svg>
